<svg data-v-423bf9ae="" xmlns="http://www.w3.org/2000/svg" viewBox="0 0 489.00268545430754 60" class="font"><!----><!----><!----><g data-v-423bf9ae="" id="41b66ea9-46fa-4d8e-b00b-25211d33c5b8" fill="white" transform="matrix(5.39083552408516,0,0,5.39083552408516,-0.37736198394657094,-9.056604755595906)"><path d="M0.07 4.55L2.59 4.55L2.59 12.60L4.55 12.60L4.55 4.55L7.07 4.55L7.07 2.80L0.07 2.80ZM9.87 8.82C9.87 8.38 10.01 8.05 10.28 7.82C10.55 7.59 10.89 7.48 11.30 7.48C11.65 7.48 11.91 7.57 12.08 7.76C12.24 7.95 12.32 8.26 12.32 8.68L12.32 12.60L14.21 12.60L14.21 8.26C14.21 7.57 14.01 7.02 13.61 6.61C13.21 6.21 12.67 6.01 12.00 6.01C11.00 6.01 10.29 6.39 9.87 7.15L9.87 1.68L7.98 1.68L7.98 12.60L9.87 12.60ZM20.41 8.62L17.29 8.62C17.36 8.22 17.56 7.91 17.88 7.69C18.20 7.46 18.55 7.35 18.94 7.35C19.80 7.35 20.29 7.77 20.41 8.62ZM17.28 9.87L22.37 9.87C22.39 9.69 22.40 9.49 22.40 9.25C22.40 8.25 22.09 7.44 21.46 6.85C20.84 6.25 20.00 5.95 18.94 5.95C17.87 5.95 17.00 6.27 16.33 6.92C15.66 7.57 15.33 8.39 15.33 9.38C15.33 10.38 15.65 11.19 16.29 11.81C16.93 12.43 17.81 12.74 18.94 12.74C20.58 12.74 21.70 12.10 22.32 10.82L20.52 10.42C20.23 10.99 19.71 11.27 18.94 11.27C17.99 11.27 17.43 10.80 17.28 9.87ZM29.75 8.40L33.88 8.40L33.88 6.72L29.75 6.72L29.75 4.55L34.16 4.55L34.16 2.80L27.79 2.80L27.79 12.60L34.16 12.60L34.16 10.85L29.75 10.85ZM40.18 6.16L38.63 8.02L37.10 6.16L34.93 6.16L37.55 9.30L34.79 12.60L36.96 12.60L38.61 10.57L40.32 12.60L42.35 12.60L39.65 9.30L42.21 6.16ZM44.18 9.38C44.18 8.83 44.36 8.41 44.72 8.11C45.08 7.82 45.57 7.67 46.17 7.67C46.61 7.67 47.03 7.77 47.44 7.96C47.84 8.15 48.12 8.37 48.27 8.62L48.27 6.50C47.66 6.13 46.91 5.95 46.03 5.95C44.87 5.95 43.95 6.26 43.25 6.88C42.56 7.50 42.21 8.33 42.21 9.38C42.21 10.43 42.56 11.26 43.25 11.88C43.95 12.50 44.87 12.81 46.03 12.81C47.02 12.81 47.77 12.63 48.27 12.26L48.27 10.12C48.11 10.39 47.84 10.62 47.47 10.81C47.09 10.99 46.66 11.09 46.17 11.09C45.57 11.09 45.08 10.94 44.72 10.65C44.36 10.35 44.18 9.93 44.18 9.38ZM49.67 3.61C49.67 3.91 49.79 4.17 50.02 4.38C50.24 4.60 50.52 4.70 50.83 4.70C51.15 4.70 51.42 4.60 51.65 4.38C51.88 4.17 52.00 3.91 52.00 3.61C52.00 3.31 51.88 3.06 51.65 2.84C51.42 2.63 51.15 2.52 50.83 2.52C50.52 2.52 50.24 2.63 50.02 2.84C49.79 3.06 49.67 3.31 49.67 3.61ZM49.87 6.16L49.87 12.60L51.79 12.60L51.79 6.16ZM53.68 3.92L53.68 6.16L52.63 6.16L52.63 7.77L53.68 7.77L53.68 12.60L55.57 12.60L55.57 7.77L56.62 7.77L56.62 6.16L55.57 6.16L55.57 3.92ZM61.98 8.62L58.86 8.62C58.93 8.22 59.13 7.91 59.44 7.69C59.76 7.46 60.12 7.35 60.51 7.35C61.37 7.35 61.86 7.77 61.98 8.62ZM58.84 9.87L63.94 9.87C63.96 9.69 63.97 9.49 63.97 9.25C63.97 8.25 63.65 7.44 63.03 6.85C62.40 6.25 61.56 5.95 60.51 5.95C59.43 5.95 58.56 6.27 57.90 6.92C57.23 7.57 56.90 8.39 56.90 9.38C56.90 10.38 57.22 11.19 57.86 11.81C58.49 12.43 59.38 12.74 60.51 12.74C62.14 12.74 63.27 12.10 63.88 10.82L62.09 10.42C61.80 10.99 61.27 11.27 60.51 11.27C59.56 11.27 59.00 10.80 58.84 9.87ZM65.16 2.80L65.16 12.60L67.12 12.60L67.12 8.33L71.74 8.33L71.74 12.60L73.70 12.60L73.70 2.80L71.74 2.80L71.74 6.58L67.12 6.58L67.12 2.80ZM79.79 9.94C79.79 10.49 79.66 10.85 79.42 11.03C79.17 11.20 78.82 11.28 78.36 11.28C78.00 11.28 77.74 11.18 77.58 10.98C77.42 10.77 77.34 10.43 77.34 9.94L77.34 6.16L75.45 6.16L75.45 10.50C75.45 12.00 76.14 12.75 77.52 12.75C78.60 12.75 79.36 12.35 79.79 11.55L79.79 12.60L81.68 12.60L81.68 6.16L79.79 6.16ZM90.78 9.38C90.78 8.26 90.47 7.42 89.85 6.86C89.24 6.30 88.46 6.02 87.51 6.02C86.48 6.02 85.70 6.46 85.18 7.35L85.18 1.68L83.29 1.68L83.29 12.60L85.18 12.60L85.18 11.41C85.70 12.30 86.48 12.74 87.51 12.74C88.46 12.74 89.24 12.46 89.85 11.90C90.47 11.34 90.78 10.50 90.78 9.38ZM88.87 9.38C88.87 9.93 88.70 10.35 88.36 10.63C88.02 10.92 87.57 11.06 87.02 11.06C86.49 11.06 86.05 10.92 85.70 10.65C85.35 10.37 85.18 9.95 85.18 9.38C85.18 8.81 85.35 8.39 85.70 8.11C86.05 7.84 86.49 7.70 87.02 7.70C87.56 7.70 88.00 7.86 88.35 8.17C88.70 8.48 88.87 8.89 88.87 9.38Z"></path></g><!----><!----></svg>